<?xml version="1.0" standalone="no"?>
<!DOCTYPE svg PUBLIC "-//W3C//DTD SVG 1.1//EN" "http://www.w3.org/Graphics/SVG/1.1/DTD/svg11.dtd" >
<svg xmlns="http://www.w3.org/2000/svg" xmlns:xlink="http://www.w3.org/1999/xlink" version="1.1">
<metadata></metadata>
<defs>
<font id="marvelregular" horiz-adv-x="512" >
<font-face units-per-em="2048" ascent="1536" descent="-512" />
<missing-glyph horiz-adv-x="500" />
<glyph horiz-adv-x="0" />
<glyph horiz-adv-x="0" />
<glyph unicode="&#xd;" />
<glyph unicode=" " />
<glyph unicode="." horiz-adv-x="307" d="M29 127q0 53 33.5 87t89.5 34q53 0 86.5 -34t33.5 -87q0 -55 -33.5 -89t-86.5 -34q-55 0 -89 34t-34 89z" />
<glyph unicode="A" horiz-adv-x="765" d="M10 0l215 1434h344l217 -1434h-260l-28 221h-201l-31 -221h-256zM328 451h143l-74 602z" />
<glyph unicode="B" horiz-adv-x="749" d="M25 0v1434h223q123 -6 221 -48q41 -18 82 -44.5t72.5 -66.5t53 -93.5t23.5 -124.5v-30q0 -104 -24 -169q-28 -74 -64 -115q-43 -45 -98 -61q59 -16 109 -57q41 -35 74.5 -99.5t35.5 -171.5v-13q-1 -58 -17 -104q-18 -51 -49.5 -87.5t-71.5 -62.5t-83 -42 q-100 -39 -227 -45h-260zM285 201q78 0 125 32.5t47 120.5q0 78 -27 119t-59 59q-37 20 -86 23v-354zM285 799q49 2 86 22q33 16 59.5 52t26.5 102q0 88 -27 134t-59 67q-37 25 -86 26v-403z" />
<glyph unicode="C" horiz-adv-x="688" d="M61 733q0 170 38 288t95.5 195.5t126 121.5t131 64.5t110.5 26t63 5.5h6v-260q-4 0 -6 2h-21q-29 0 -77 -12.5t-95 -56.5t-82 -132t-35 -242q0 -166 35 -262t83 -144t97.5 -61.5t77.5 -13.5q14 0 19 2h6v-254q0 2 -17 2h-34q-35 0 -87.5 6t-110.5 28.5t-115.5 69 t-103.5 128t-75 203.5t-29 296z" />
<glyph unicode="D" horiz-adv-x="759" d="M20 2l5 1434h247q98 0 170 -37t123 -98.5t84 -142.5t51.5 -167t25.5 -173t7 -161q0 -164 -33.5 -276.5t-86 -184t-109.5 -112.5q-102 -72 -232 -82h-252zM272 1190l4 -971l14 2q15 2 38.5 15.5t51.5 42t51.5 82t38.5 134t15 199.5q0 31 -2 80t-9 104.5t-21.5 110.5 t-38 100.5t-58 73t-84.5 27.5z" />
<glyph unicode="E" horiz-adv-x="571" d="M39 0v1434h481v-254h-217v-324h219v-266h-231v-324h233v-266h-485z" />
<glyph unicode="F" horiz-adv-x="550" d="M35 0v1434h481v-263h-221v-319h225v-262h-233v-592z" />
<glyph unicode="G" horiz-adv-x="765" d="M35 733q0 170 46 288t116.5 194.5t155.5 120.5t163 64.5t136.5 26t78.5 5.5h8v-261q-4 0 -10 3h-29q-41 0 -110.5 -12.5t-136 -56.5t-115.5 -132t-49 -240q0 -96 17.5 -177t48 -138.5t70.5 -89t83 -31.5v221h-121v217h348v-737q0 2 -22 2h-37q-43 0 -106.5 5t-135.5 27.5 t-142.5 70t-128 128t-93 203.5t-35.5 299z" />
<glyph unicode="H" horiz-adv-x="794" d="M27 0v1436h272v-584h211v582h254v-1434h-256v588h-211v-588h-270z" />
<glyph unicode="I" horiz-adv-x="311" d="M31 0v1434h254v-1434h-254z" />
<glyph unicode="J" horiz-adv-x="479" d="M31 0v264q66 16 97.5 41t43.5 51q14 29 12 62v1016l258 2q0 -283 2 -504v-514q0 -74 -17 -131.5t-47 -100.5t-67 -73.5t-75 -51.5q-90 -49 -207 -61z" />
<glyph unicode="K" horiz-adv-x="854" d="M27 0v1434h249v-586l281 586h260l-338 -717l338 -717l-256 -2l-285 586v-584h-249z" />
<glyph unicode="L" horiz-adv-x="536" d="M33 -2v1436l254 2v-1178h221v-260h-475z" />
<glyph unicode="M" horiz-adv-x="929" d="M25 0v1434h327l119 -738l117 738h334v-1436h-267v692l-116 -690h-138l-116 684v-684h-260z" />
<glyph unicode="N" horiz-adv-x="794" d="M31 0v1434h256l219 -742v742h262v-1434h-262l-221 684v-686z" />
<glyph unicode="O" horiz-adv-x="854" d="M35 717q0 162 28.5 294t80 226t125 145.5t161.5 51.5t161 -51.5t124 -145.5t79.5 -226t28.5 -294t-28.5 -294t-79.5 -226.5t-124 -145.5t-161 -51t-161.5 51t-125 145.5t-80 226.5t-28.5 294zM289 713q0 -102 10 -186.5t28.5 -144.5t44 -93t56.5 -33t56.5 33t43 93 t27.5 144t10 187q0 102 -10 187t-27.5 144.5t-43 92t-56.5 32.5t-56.5 -32.5t-44 -92t-28.5 -144.5t-10 -187z" />
<glyph unicode="P" horiz-adv-x="741" d="M35 0l2 1434h305q76 0 143.5 -38t118.5 -102.5t81 -149.5t30 -177t-18.5 -164t-47 -124t-66.5 -88t-79 -61q-92 -53 -211 -61l2 -469h-260zM293 721q49 0 82 19.5t53.5 51t29.5 72.5t9 84q0 88 -25.5 134t-58.5 69q-37 25 -84 29z" />
<glyph unicode="Q" horiz-adv-x="858" d="M39 717q0 162 28.5 294t80 226t125 145.5t161.5 51.5t161 -51.5t124 -145.5t79.5 -226t28.5 -294q0 -166 -29.5 -301t-84.5 -232l75 -108l-98 -166l-96 141q-74 -51 -160 -51q-88 0 -161.5 51t-125 145.5t-80 226.5t-28.5 294zM293 713q0 -102 10 -186.5t28.5 -144.5 t44 -93t56.5 -33q6 0 11.5 1t11.5 3l-68 100l94 158l62 -90q12 57 19 128t7 157q0 102 -10 187t-27.5 144.5t-43 92t-56.5 32.5t-56.5 -32.5t-44 -92t-28.5 -144.5t-10 -187z" />
<glyph unicode="R" horiz-adv-x="622" d="M29 0l2 1434h293q72 0 136 -22.5t115.5 -71t85 -124t44.5 -184.5q6 -52 6 -98q1 -70 -13 -124q-22 -89 -53 -142q-35 -66 -84 -103l170 -565h-262l-125 481l-57 -10v-471h-258zM287 725q47 4 77.5 23.5t51 50t29 69.5t8.5 80q0 43 -8.5 85t-27 76t-50 54.5t-80.5 20.5 v-459z" />
<glyph unicode="S" horiz-adv-x="651" d="M20 999q0 94 54.5 174t140.5 137.5t194 90.5t214 33q2 0 2 -40v-87q0 -57 -2 -129q-63 0 -128 -11.5t-115 -35t-82 -56.5t-32 -76q0 -37 28 -63.5t67.5 -53t88 -58t88.5 -74.5t67.5 -104.5t27.5 -149.5q0 -131 -48 -224.5t-131 -154t-193.5 -89t-233.5 -28.5v256 q37 0 96 12.5t115.5 41t97.5 75.5q39 45 39 111v6q0 35 -26.5 60.5t-66.5 51t-85 55t-85 73.5t-66 105.5t-26 151.5z" />
<glyph unicode="T" horiz-adv-x="915" d="M51 1174v260h787v-260h-258v-1174h-252v1174h-277z" />
<glyph unicode="U" horiz-adv-x="843" d="M29 696v740h252v-727q2 -127 16 -226q6 -43 16.5 -83t25.5 -71.5t34.5 -51t44.5 -19.5q31 0 52.5 19.5t36.5 51t24.5 71.5t15.5 83q10 84 10 190v36v725h256v-725q0 -72 -1 -153t-10 -160t-31.5 -150.5t-67 -125.5t-114 -87t-171.5 -33q-141 0 -220 49t-117 140.5 t-45 220.5t-7 286z" />
<glyph unicode="V" horiz-adv-x="776" d="M39 1434h266l115 -865l121 865h258l-228 -1434h-303z" />
<glyph unicode="W" horiz-adv-x="1224" d="M43 1434h262l121 -871l115 871h266l121 -871l114 871h265l-230 -1434h-305l-98 616l-99 -616h-305z" />
<glyph unicode="X" horiz-adv-x="833" d="M41 0l227 717h2l-229 717h266l115 -433l121 433h258l-228 -717h-2l230 -717h-266l-115 432l-121 -432h-258z" />
<glyph unicode="Y" horiz-adv-x="831" d="M33 1434h266l115 -506l121 506h258l-228 -840v-594h-303v594z" />
<glyph unicode="Z" horiz-adv-x="696" d="M37 1169v265l627 4v-262l-328 -918h334v-256h-631v260l319 909z" />
<glyph unicode="&#xa0;" />
<glyph unicode="&#x2000;" horiz-adv-x="719" />
<glyph unicode="&#x2001;" horiz-adv-x="1438" />
<glyph unicode="&#x2002;" horiz-adv-x="719" />
<glyph unicode="&#x2003;" horiz-adv-x="1438" />
<glyph unicode="&#x2004;" horiz-adv-x="479" />
<glyph unicode="&#x2005;" horiz-adv-x="359" />
<glyph unicode="&#x2006;" horiz-adv-x="239" />
<glyph unicode="&#x2007;" horiz-adv-x="239" />
<glyph unicode="&#x2008;" horiz-adv-x="179" />
<glyph unicode="&#x2009;" horiz-adv-x="287" />
<glyph unicode="&#x200a;" horiz-adv-x="79" />
<glyph unicode="&#x202f;" horiz-adv-x="287" />
<glyph unicode="&#x205f;" horiz-adv-x="359" />
<glyph unicode="&#x25fc;" horiz-adv-x="1024" d="M0 0z" />
</font>
</defs>
</svg>
